<svg width="18" height="18" viewBox="0 0 18 18" fill="none" xmlns="http://www.w3.org/2000/svg">
<path d="M5.8797 4.34341C5.72081 4.25443 5.52708 4.25443 5.36819 4.34341C4.90724 4.60154 4.39759 4.09189 4.65572 3.63094C4.7447 3.47204 4.7447 3.27832 4.65572 3.11943C4.39759 2.65848 4.90724 2.14883 5.36819 2.40696C5.52708 2.49594 5.72081 2.49594 5.8797 2.40696C6.34065 2.14883 6.8503 2.65848 6.59217 3.11943C6.50319 3.27832 6.50319 3.47204 6.59217 3.63094C6.8503 4.09189 6.34065 4.60154 5.8797 4.34341ZM14.3682 11.407C14.5271 11.4959 14.7208 11.4959 14.8797 11.407C15.3407 11.1488 15.8503 11.6585 15.5922 12.1194C15.5032 12.2783 15.5032 12.472 15.5922 12.6309C15.8503 13.0919 15.3407 13.6015 14.8797 13.3434C14.7208 13.2544 14.5271 13.2544 14.3682 13.3434C13.9072 13.6015 13.3976 13.0919 13.6557 12.6309C13.7447 12.472 13.7447 12.2783 13.6557 12.1194C13.3976 11.6585 13.9072 11.1488 14.3682 11.407ZM14.8797 2.40696C15.3407 2.14883 15.8503 2.65848 15.5922 3.11943C15.5032 3.27832 15.5032 3.47204 15.5922 3.63094C15.8503 4.09189 15.3407 4.60154 14.8797 4.34341C14.7208 4.25443 14.5271 4.25443 14.3682 4.34341C13.9072 4.60154 13.3976 4.09189 13.6557 3.63094C13.7447 3.47204 13.7447 3.27832 13.6557 3.11943C13.3976 2.65848 13.9072 2.14883 14.3682 2.40696C14.5271 2.49594 14.7208 2.49594 14.8797 2.40696ZM9.20895 8.79018C9.64801 9.22925 10.3599 9.22925 10.7989 8.79018L11.0389 8.55018C11.478 8.11112 11.478 7.39925 11.0389 6.96018C10.5999 6.52112 9.88801 6.52112 9.44895 6.96018L9.20895 7.20018C8.76988 7.63925 8.76988 8.35112 9.20895 8.79018ZM10.7764 5.46768L12.5314 7.22268C12.8239 7.50018 12.8239 7.98768 12.5314 8.28018L3.77895 17.0327C3.48645 17.3252 2.99895 17.3252 2.72145 17.0327L0.966445 15.2777C0.673945 15.0002 0.673945 14.5127 0.966445 14.2202L9.71894 5.46768C10.0114 5.17518 10.4989 5.17518 10.7764 5.46768Z" fill="#1FC16B"/>
</svg>
