<svg width="24" height="24" viewBox="0 0 24 24" fill="none" xmlns="http://www.w3.org/2000/svg">
<path d="M12.003 21C10.759 21 9.589 20.764 8.493 20.292C7.39767 19.8193 6.44467 19.178 5.634 18.368C4.82333 17.558 4.18167 16.606 3.709 15.512C3.23633 14.418 3 13.2483 3 12.003C3 10.7577 3.23633 9.58767 3.709 8.493C4.18167 7.39767 4.823 6.44467 5.633 5.634C6.443 4.82333 7.39533 4.18167 8.49 3.709C9.58467 3.23633 10.7547 3 12 3C12.864 3 13.6977 3.12067 14.501 3.362C15.3043 3.60333 16.0687 3.95 16.794 4.402C16.9287 4.484 17.0177 4.594 17.061 4.732C17.1037 4.87133 17.0803 4.99967 16.991 5.117C16.901 5.235 16.7827 5.305 16.636 5.327C16.4893 5.349 16.353 5.319 16.227 5.237C15.591 4.833 14.915 4.526 14.199 4.316C13.483 4.106 12.75 4.00067 12 4C9.78333 4 7.89567 4.77933 6.337 6.338C4.77833 7.89667 3.99933 9.784 4 12C4.00067 14.216 4.78 16.1037 6.338 17.663C7.896 19.2223 9.78333 20.0013 12 20C14.2167 19.9987 16.1043 19.2197 17.663 17.663C19.2217 16.1063 20.0007 14.2187 20 12C20 11.7467 19.9893 11.501 19.968 11.263C19.9473 11.025 19.9093 10.7817 19.854 10.533C19.8207 10.3903 19.8397 10.2537 19.911 10.123C19.9823 9.99233 20.09 9.91167 20.234 9.881C20.3707 9.849 20.4947 9.874 20.606 9.956C20.7173 10.038 20.7897 10.148 20.823 10.286C20.8823 10.558 20.9267 10.8357 20.956 11.119C20.9853 11.4023 21 11.696 21 12C21 13.2453 20.764 14.4153 20.292 15.51C19.82 16.6047 19.1787 17.5573 18.368 18.368C17.5573 19.1787 16.6053 19.8197 15.512 20.291C14.4187 20.7623 13.249 20.9987 12.003 21ZM10.562 14.492L19.939 5.109C20.0323 5.01567 20.1457 4.965 20.279 4.957C20.4123 4.949 20.536 5.00133 20.65 5.114C20.754 5.21733 20.806 5.334 20.806 5.464C20.806 5.594 20.7527 5.71167 20.646 5.817L11.127 15.342C10.965 15.5033 10.7763 15.584 10.561 15.584C10.3457 15.584 10.1573 15.5033 9.996 15.342L7.358 12.704C7.26467 12.6107 7.21467 12.4957 7.208 12.359C7.20133 12.2237 7.25133 12.1027 7.358 11.996C7.46467 11.8893 7.58267 11.836 7.712 11.836C7.84133 11.836 7.95933 11.8893 8.066 11.996L10.562 14.492Z" fill="#1FC16B"/>
</svg>
