<svg width="24" height="24" viewBox="0 0 24 24" fill="none" xmlns="http://www.w3.org/2000/svg">
<path d="M7.49859 5.6L4.99859 7L6.39859 4.5L4.99859 2L7.49859 3.4L9.99859 2L8.59859 4.5L9.99859 7L7.49859 5.6ZM19.4986 15.4L21.9986 14L20.5986 16.5L21.9986 19L19.4986 17.6L16.9986 19L18.3986 16.5L16.9986 14L19.4986 15.4ZM21.9986 2L20.5986 4.5L21.9986 7L19.4986 5.6L16.9986 7L18.3986 4.5L16.9986 2L19.4986 3.4L21.9986 2ZM13.3386 12.78L15.7786 10.34L13.6586 8.22L11.2186 10.66L13.3386 12.78ZM14.3686 7.29L16.7086 9.63C17.0986 10 17.0986 10.65 16.7086 11.04L5.03859 22.71C4.64859 23.1 3.99859 23.1 3.62859 22.71L1.28859 20.37C0.898594 20 0.898594 19.35 1.28859 18.96L12.9586 7.29C13.3486 6.9 13.9986 6.9 14.3686 7.29Z" fill="url(#paint0_linear_1070_14818)"/>
<defs>
<linearGradient id="paint0_linear_1070_14818" x1="0.842791" y1="1.72365" x2="21.999" y2="3.08471" gradientUnits="userSpaceOnUse">
<stop stop-color="#D24D21"/>
<stop offset="0.359454" stop-color="#B9441D"/>
<stop offset="1" stop-color="#FF7D53"/>
</linearGradient>
</defs>
</svg>
