<svg width="17" height="18" viewBox="0 0 17 18" fill="none" xmlns="http://www.w3.org/2000/svg">
<path d="M8.654 18V15.79L13.987 10.483C14.0857 10.3963 14.1873 10.333 14.292 10.293C14.3967 10.253 14.5017 10.2323 14.607 10.231C14.7217 10.231 14.8343 10.2523 14.945 10.295C15.055 10.3383 15.1553 10.403 15.246 10.489L16.171 11.433C16.253 11.5317 16.3157 11.6343 16.359 11.741C16.4017 11.847 16.423 11.9533 16.423 12.06C16.423 12.1667 16.4027 12.274 16.362 12.382C16.3213 12.49 16.258 12.5933 16.172 12.692L10.863 18H8.654ZM9.539 17.116H10.489L13.956 13.642L13.506 13.148L13.031 12.678L9.538 16.166L9.539 17.116ZM1.615 18C1.15433 18 0.77 17.846 0.462 17.538C0.154 17.23 0 16.8457 0 16.385V1.615C0 1.155 0.154333 0.771 0.463 0.463C0.771667 0.155 1.156 0.000666667 1.616 0H9.5L14 4.5V7.096H13V5H9V1H1.616C1.462 1 1.32067 1.064 1.192 1.192C1.06333 1.32 0.999333 1.461 1 1.615V16.385C1 16.5383 1.064 16.6793 1.192 16.808C1.32 16.9367 1.461 17.0007 1.615 17H6.269V18H1.615ZM13.505 13.148L13.031 12.678L13.956 13.642L13.505 13.148Z" fill="#4C9AFF"/>
</svg>
