<svg width="23" height="24" viewBox="0 0 23 24" fill="none" xmlns="http://www.w3.org/2000/svg">
<path d="M12.2027 24V21.0533L19.3134 13.9773C19.445 13.8618 19.5805 13.7773 19.7201 13.724C19.8596 13.6707 19.9996 13.6431 20.1401 13.6413C20.293 13.6413 20.4432 13.6698 20.5907 13.7267C20.7374 13.7844 20.8712 13.8707 20.9921 13.9853L22.2254 15.244C22.3347 15.3756 22.4183 15.5124 22.4761 15.6547C22.5329 15.796 22.5614 15.9378 22.5614 16.08C22.5614 16.2222 22.5343 16.3653 22.4801 16.5093C22.4258 16.6533 22.3414 16.7911 22.2267 16.9227L15.1481 24H12.2027ZM13.3827 22.8213H14.6494L19.2721 18.1893L18.6721 17.5307L18.0387 16.904L13.3814 21.5547L13.3827 22.8213ZM2.8174 24C2.20317 24 1.69073 23.7947 1.28006 23.384C0.869396 22.9733 0.664062 22.4609 0.664062 21.8467V2.15333C0.664062 1.54 0.86984 1.028 1.2814 0.617333C1.69295 0.206667 2.2054 0.000888889 2.81873 0H13.3307L19.3307 6V9.46133H17.9974V6.66667H12.6641V1.33333H2.81873C2.6134 1.33333 2.42495 1.41867 2.2534 1.58933C2.08184 1.76 1.99651 1.948 1.9974 2.15333V21.8467C1.9974 22.0511 2.08273 22.2391 2.2534 22.4107C2.42406 22.5822 2.61206 22.6676 2.8174 22.6667H9.02273V24H2.8174ZM18.6707 17.5307L18.0387 16.904L19.2721 18.1893L18.6707 17.5307Z" fill="#3F3F3F"/>
</svg>
